<?xml version="1.0" encoding="UTF-8"?>
<svg width="32px" height="32px" viewBox="0 0 32 32" version="1.1" xmlns="http://www.w3.org/2000/svg" xmlns:xlink="http://www.w3.org/1999/xlink">
    <title>Combined Shape</title>
    <g id="Symbols" stroke="none" stroke-width="1" fill="none" fill-rule="evenodd">
        <g id="Common/Mobile/Footer/375" transform="translate(-15.000000, -213.000000)" fill="#555555">
            <g id="Footer">
                <g id="Blog" transform="translate(15.000000, 213.000000)">
                    <g id="Combined-Shape">
                        <path d="M16,32 C24.836556,32 32,24.836556 32,16 C32,7.163444 24.836556,0 16,0 C7.163444,0 0,7.163444 0,16 C0,24.836556 7.163444,32 16,32 Z M16.8958333,23.7333333 C18.6180556,23.7194444 19.9444444,23.3375 20.875,22.5875 C21.8055556,21.8375 22.2708333,20.7333333 22.2708333,19.275 C22.2708333,18.4208333 22.046875,17.6986111 21.5989583,17.1083333 C21.1510417,16.5180556 20.5381944,16.1256944 19.7604167,15.93125 C20.4409722,15.6673611 20.9722222,15.2524306 21.3541667,14.6864583 C21.7361111,14.1204861 21.9270833,13.4659722 21.9270833,12.7229167 C21.9270833,11.3618056 21.4513889,10.3288194 20.5,9.62395833 C19.5486111,8.91909722 18.1527778,8.56666667 16.3125,8.56666667 L16.3125,8.56666667 L11,8.56666667 L11,23.7333333 L16.8958333,23.7333333 Z M16.4375,14.9208333 L14.125,14.9208333 L14.125,11.0979167 L16.3125,11.0979167 C17.1736111,11.0979167 17.8038194,11.2489583 18.203125,11.5510417 C18.6024306,11.853125 18.8020833,12.3479167 18.8020833,13.0354167 C18.8020833,14.2645833 18.0138889,14.8930556 16.4375,14.9208333 L16.4375,14.9208333 Z M16.8020833,21.2229167 L14.125,21.2229167 L14.125,17.1291667 L16.9895833,17.1291667 C18.4270833,17.15 19.1458333,17.8548611 19.1458333,19.24375 C19.1458333,19.8618056 18.9392361,20.3461806 18.5260417,20.696875 C18.1128472,21.0475694 17.5381944,21.2229167 16.8020833,21.2229167 L16.8020833,21.2229167 Z"></path>
                    </g>
                </g>
            </g>
        </g>
    </g>
</svg>