<?xml version="1.0" encoding="UTF-8"?>
<svg width="24px" height="24px" viewBox="0 0 24 24" version="1.1" xmlns="http://www.w3.org/2000/svg" xmlns:xlink="http://www.w3.org/1999/xlink">
    <title>Instagram</title>
    <defs>
        <polygon id="path-1" points="-3.80140364e-13 2.48689958e-14 24 2.48689958e-14 24 24 -3.80140364e-13 24"></polygon>
    </defs>
    <g id="Symbols" stroke="none" stroke-width="1" fill="none" fill-rule="evenodd">
        <g id="Common/PC/Footer/Wide" transform="translate(-1643.000000, -54.000000)">
            <g id="Common/Footer/Wide/White" transform="translate(1.000000, 0.000000)">
                <g id="Common/Footer/Wide">
                    <g id="+FOOTER">
                        <g id="Relate" transform="translate(1496.000000, 54.000000)">
                            <g id="Instagram" transform="translate(146.000000, 0.000000)">
                                <g id="Shape">
                                    <mask id="mask-2" fill="white">
                                        <use xlink:href="#path-1"></use>
                                    </mask>
                                    <g id="Clip-2"></g>
                                    <path d="M12.0000238,7.46069873e-14 C8.74099567,7.46069873e-14 8.33234294,0.0138138818 7.05241535,0.0722132578 C5.77515526,0.130469732 4.90283244,0.333343257 4.13954402,0.630008276 C3.35043794,0.936628817 2.68122682,1.34694874 2.01406396,2.01406396 C1.34694874,2.68122682 0.936628817,3.35043794 0.630008276,4.13954402 C0.333343257,4.90283244 0.130469732,5.77515526 0.0722132578,7.05241535 C0.0138138818,8.33234294 -3.80140364e-13,8.74099567 -3.80140364e-13,12.0000238 C-3.80140364e-13,15.2590043 0.0138138818,15.6676571 0.0722132578,16.9475847 C0.130469732,18.2248447 0.333343257,19.0971676 0.630008276,19.860456 C0.936628817,20.6495621 1.34694874,21.3187732 2.01406396,21.985936 C2.68122682,22.6530513 3.35043794,23.0633712 4.13954402,23.3700394 C4.90283244,23.6666567 5.77515526,23.8695303 7.05241535,23.9277867 C8.33234294,23.9861861 8.74099567,24 12.0000238,24 C15.2590043,24 15.6676571,23.9861861 16.9475847,23.9277867 C18.2248447,23.8695303 19.0971676,23.6666567 19.860456,23.3700394 C20.6495621,23.0633712 21.3187732,22.6530513 21.985936,21.985936 C22.6530513,21.3187732 23.0633712,20.6495621 23.3700394,19.860456 C23.6666567,19.0971676 23.8695303,18.2248447 23.9277867,16.9475847 C23.9861861,15.6676571 24,15.2590043 24,12.0000238 C24,8.74099567 23.9861861,8.33234294 23.9277867,7.05241535 C23.8695303,5.77515526 23.6666567,4.90283244 23.3700394,4.13954402 C23.0633712,3.35043794 22.6530513,2.68122682 21.985936,2.01406396 C21.3187732,1.34694874 20.6495621,0.936628817 19.860456,0.630008276 C19.0971676,0.333343257 18.2248447,0.130469732 16.9475847,0.0722132578 C15.6676571,0.0138138818 15.2590043,7.46069873e-14 12.0000238,7.46069873e-14 Z M12.0000242,2 C15.2569439,2 15.6427484,2.01244374 16.9289569,2.07112785 C18.1182301,2.12535739 18.7640942,2.32406993 19.1939118,2.49111628 C19.7632735,2.71239218 20.1696077,2.97671277 20.5964233,3.40357673 C21.0232872,3.83039227 21.2876078,4.23672647 21.5088837,4.80608823 C21.6759301,5.23590577 21.8746426,5.88176992 21.9288721,7.07104312 C21.9875563,8.35725163 22,8.74305608 22,12.0000242 C22,15.2569439 21.9875563,15.6427484 21.9288721,16.9289569 C21.8746426,18.1182301 21.6759301,18.7640942 21.5088837,19.1939118 C21.2876078,19.7632735 21.0232872,20.1696077 20.5964233,20.5964233 C20.1696077,21.0232872 19.7632735,21.2876078 19.1939118,21.5088837 C18.7640942,21.6759301 18.1182301,21.8746426 16.9289569,21.9288721 C15.642942,21.9875563 15.257186,22 12.0000242,22 C8.74281398,22 8.35710637,21.9875563 7.07104312,21.9288721 C5.88176992,21.8746426 5.23590577,21.6759301 4.80608823,21.5088837 C4.23672647,21.2876078 3.83039227,21.0232872 3.40357673,20.5964233 C2.97676119,20.1696077 2.71239218,19.7632735 2.49111628,19.1939118 C2.32406993,18.7640942 2.12535739,18.1182301 2.07112785,16.9289569 C2.01244374,15.6427484 2,15.2569439 2,12.0000242 C2,8.74305608 2.01244374,8.35725163 2.07112785,7.07104312 C2.12535739,5.88176992 2.32406993,5.23590577 2.49111628,4.80608823 C2.71239218,4.23672647 2.97671277,3.83039227 3.40357673,3.40357673 C3.83039227,2.97671277 4.23672647,2.71239218 4.80608823,2.49111628 C5.23590577,2.32406993 5.88176992,2.12535739 7.07104312,2.07112785 C8.35725163,2.01244374 8.74305608,2 12.0000242,2 L12.0000242,2 Z" id="Fill-1" fill="#CBCBCB" mask="url(#mask-2)"></path>
                                </g>
                                <path d="M12.0000238,16 C9.79085069,16 8,14.2091493 8,12.0000238 C8,9.79085069 9.79085069,8 12.0000238,8 C14.2091493,8 16,9.79085069 16,12.0000238 C16,14.2091493 14.2091493,16 12.0000238,16 Z M12.0000232,6 C8.68627019,6 6,8.68627019 6,12.0000232 C6,15.3137298 8.68627019,18 12.0000232,18 C15.3137298,18 18,15.3137298 18,12.0000232 C18,8.68627019 15.3137298,6 12.0000232,6 L12.0000232,6 Z" id="Fill-4" fill="#CBCBCB"></path>
                                <path d="M20,5.50002481 C20,6.32845967 19.32841,7 18.4999752,7 C17.67159,7 17,6.32845967 17,5.50002481 C17,4.67158995 17.67159,4 18.4999752,4 C19.32841,4 20,4.67158995 20,5.50002481" id="Fill-5" fill="#CBCBCB"></path>
                            </g>
                        </g>
                    </g>
                </g>
            </g>
        </g>
    </g>
</svg>