<?xml version="1.0" encoding="UTF-8"?>
<svg width="35px" height="24px" viewBox="0 0 35 24" version="1.1" xmlns="http://www.w3.org/2000/svg" xmlns:xlink="http://www.w3.org/1999/xlink">
    <title>Combined Shape</title>
    <g id="Symbols" stroke="none" stroke-width="1" fill="none" fill-rule="evenodd">
        <g id="Common/Mobile/Footer/375" transform="translate(-119.000000, -217.000000)" fill="#555555">
            <g id="Footer">
                <path d="M136.945592,217.001221 C139.023308,217.010396 147.775809,217.086422 150.17575,217.71635 C151.681821,218.110539 152.867905,219.27201 153.270426,220.746975 C154.001884,223.420178 154.001884,228.997835 154.001884,228.997835 C154.001506,229.249856 153.98526,234.636057 153.270426,237.248695 C152.867905,238.723659 151.681821,239.885131 150.17575,240.279513 C147.634636,240.946315 137.97162,240.992302 136.650877,240.995473 L136.351093,240.995473 C135.030349,240.992302 125.367321,240.946315 122.826021,240.279513 C121.31995,239.885131 120.133866,238.723659 119.731345,237.248695 C119.066564,234.818334 119.00613,229.987918 119.000636,229.129747 L119.000636,228.865918 C119.00613,228.007719 119.066564,223.17716 119.731345,220.746975 C120.133866,219.27201 121.31995,218.110539 122.826021,217.71635 C125.226137,217.086422 133.978659,217.010396 136.056377,217.001221 Z M133.875791,224.111111 L133.875791,234.777778 L141.751195,229.444648 L133.875791,224.111111 Z" id="Combined-Shape"></path>
            </g>
        </g>
    </g>
</svg>