<?xml version="1.0" encoding="UTF-8"?>
<svg width="24px" height="24px" viewBox="0 0 24 24" version="1.1" xmlns="http://www.w3.org/2000/svg" xmlns:xlink="http://www.w3.org/1999/xlink">
    <title>BI_FACEBOOK</title>
    <g id="Symbols" stroke="none" stroke-width="1" fill="none" fill-rule="evenodd">
        <g id="Common/PC/Footer/Wide" transform="translate(-1545.000000, -54.000000)" fill="#CBCBCB">
            <g id="Common/Footer/Wide/White" transform="translate(1.000000, 0.000000)">
                <g id="Common/Footer/Wide">
                    <g id="+FOOTER">
                        <g id="Relate" transform="translate(1496.000000, 54.000000)">
                            <g id="BI_FACEBOOK" transform="translate(48.000000, 0.000000)">
                                <path d="M24,12 C24,5.37257813 18.6274219,2.13162821e-14 12,2.13162821e-14 C5.37257813,2.13162821e-14 0,5.37257813 0,12 C0,17.9895469 4.38822656,22.9539844 10.125,23.8541484 L10.125,15.46875 L7.078125,15.46875 L7.078125,12 L10.125,12 L10.125,9.35625 C10.125,6.34875 11.9165156,4.6875 14.6575781,4.6875 C15.9704766,4.6875 17.34375,4.921875 17.34375,4.921875 L17.34375,7.875 L15.8305781,7.875 C14.3398828,7.875 13.875,8.80000781 13.875,9.74899219 L13.875,12 L17.203125,12 L16.6710937,15.46875 L13.875,15.46875 L13.875,23.8541484 C19.6117734,22.9539844 24,17.9895469 24,12" id="Fill-1"></path>
                            </g>
                        </g>
                    </g>
                </g>
            </g>
        </g>
    </g>
</svg>