<?xml version="1.0" encoding="UTF-8"?>
<svg width="32px" height="32px" viewBox="0 0 32 32" version="1.1" xmlns="http://www.w3.org/2000/svg" xmlns:xlink="http://www.w3.org/1999/xlink">
    <title>BI_FACEBOOK</title>
    <g id="Symbols" stroke="none" stroke-width="1" fill="none" fill-rule="evenodd">
        <g id="Common/Mobile/Footer/375" transform="translate(-67.000000, -213.000000)" fill="#555555">
            <g id="Footer">
                <g id="BI_FACEBOOK" transform="translate(67.000000, 213.000000)">
                    <path d="M32,16.0978289 C32,7.20723695 24.8365625,0 16,0 C7.1634375,0 0,7.20723695 0,16.0978289 C0,24.1327206 5.85096875,30.7924427 13.5,32 L13.5,20.7511076 L9.4375,20.7511076 L9.4375,16.0978289 L13.5,16.0978289 L13.5,12.551276 C13.5,8.5167576 15.8886875,6.28821441 19.5434375,6.28821441 C21.2939687,6.28821441 23.125,6.60262513 23.125,6.60262513 L23.125,10.5642002 L21.1074375,10.5642002 C19.1198438,10.5642002 18.5,11.805085 18.5,13.078134 L18.5,16.0978289 L22.9375,16.0978289 L22.228125,20.7511076 L18.5,20.7511076 L18.5,32 C26.1490313,30.7924427 32,24.1327206 32,16.0978289" id="Fill-1"></path>
                </g>
            </g>
        </g>
    </g>
</svg>