<?xml version="1.0" encoding="UTF-8"?>
<svg width="24px" height="24px" viewBox="0 0 24 24" version="1.1" xmlns="http://www.w3.org/2000/svg" xmlns:xlink="http://www.w3.org/1999/xlink">
    <title>Combined Shape</title>
    <g id="Symbols" stroke="none" stroke-width="1" fill="none" fill-rule="evenodd">
        <g id="Common/PC/Footer/Wide" transform="translate(-1497.000000, -54.000000)" fill="#CBCBCB">
            <g id="Common/Footer/Wide/White" transform="translate(1.000000, 0.000000)">
                <g id="Common/Footer/Wide">
                    <g id="+FOOTER">
                        <g id="Relate" transform="translate(1496.000000, 54.000000)">
                            <g id="Blog">
                                <path d="M12,24 C18.627417,24 24,18.627417 24,12 C24,5.372583 18.627417,0 12,0 C5.372583,0 0,5.372583 0,12 C0,18.627417 5.372583,24 12,24 Z M12.9375,17.8 C14.2291667,17.7895833 15.2239583,17.503125 15.921875,16.940625 C16.6197917,16.378125 16.96875,15.55 16.96875,14.45625 C16.96875,13.815625 16.8007813,13.2739583 16.4648438,12.83125 C16.1289063,12.3885417 15.6692708,12.0942708 15.0859375,11.9484375 C15.5963542,11.7505208 15.9947917,11.4393229 16.28125,11.0148437 C16.5677083,10.5903646 16.7109375,10.0994792 16.7109375,9.5421875 C16.7109375,8.52135417 16.3541667,7.74661458 15.640625,7.21796875 C14.9270833,6.68932292 13.8802083,6.425 12.5,6.425 L12.5,6.425 L8.515625,6.425 L8.515625,17.8 L12.9375,17.8 Z M12.59375,11.190625 L10.859375,11.190625 L10.859375,8.3234375 L12.5,8.3234375 C13.1458333,8.3234375 13.6184896,8.43671875 13.9179688,8.66328125 C14.2174479,8.88984375 14.3671875,9.2609375 14.3671875,9.7765625 C14.3671875,10.6984375 13.7760417,11.1697917 12.59375,11.190625 L12.59375,11.190625 Z M12.8671875,15.9171875 L10.859375,15.9171875 L10.859375,12.846875 L13.0078125,12.846875 C14.0859375,12.8625 14.625,13.3911458 14.625,14.4328125 C14.625,14.8963542 14.4700521,15.2596354 14.1601563,15.5226562 C13.8502604,15.7856771 13.4192708,15.9171875 12.8671875,15.9171875 L12.8671875,15.9171875 Z" id="Combined-Shape"></path>
                            </g>
                        </g>
                    </g>
                </g>
            </g>
        </g>
    </g>
</svg>