<?xml version="1.0" encoding="UTF-8"?>
<svg width="26px" height="18px" viewBox="0 0 26 18" version="1.1" xmlns="http://www.w3.org/2000/svg" xmlns:xlink="http://www.w3.org/1999/xlink">
    <title>Group</title>
    <g id="Symbols" stroke="none" stroke-width="1" fill="none" fill-rule="evenodd">
        <g id="Common/PC/Footer/Wide" transform="translate(-1593.000000, -57.000000)" fill="#CBCBCB">
            <g id="Common/Footer/Wide/White" transform="translate(1.000000, 0.000000)">
                <g id="Common/Footer/Wide">
                    <g id="+FOOTER">
                        <g id="Relate" transform="translate(1496.000000, 54.000000)">
                            <g id="Group" transform="translate(96.000000, 3.000000)">
                                <path d="M13.4562865,0.000580149996 C15.1984381,0.0099813208 21.4200958,0.0757895165 23.157875,0.536446886 C24.2766136,0.832166021 25.1576591,1.70349948 25.4566591,2.81001457 C25.9534279,4.64355202 25.9960081,8.29848398 25.9996578,8.91157286 L25.9996578,9.08800836 C25.9960081,9.70107741 25.9534279,13.3558994 25.4566591,15.1895696 C25.1576591,16.2960847 24.2766136,17.1674181 23.157875,17.4632824 C21.3373444,17.9457455 14.5957317,17.9949764 13.2388484,18 L12.7611515,18 C11.4042667,17.9949764 4.66264054,17.9457455 2.84197727,17.4632824 C1.72323864,17.1674181 0.842193182,16.2960847 0.543193182,15.1895696 C0.0465594156,13.3558994 0.00399080705,9.70107741 0.000342069176,9.08800836 L0.000342069176,8.91157286 C0.00399080705,8.29848398 0.0465594156,4.64355202 0.543193182,2.81001457 C0.842193182,1.70349948 1.72323864,0.832166021 2.84197727,0.536446886 C4.57988312,0.0757895165 10.8015589,0.0099813208 12.5437131,0.000580149996 Z M10.3408648,5.20075207 L10.3408648,12.7988611 L17.1363193,8.99995177 L10.3408648,5.20075207 Z" id="Combined-Shape"></path>
                            </g>
                        </g>
                    </g>
                </g>
            </g>
        </g>
    </g>
</svg>