<?xml version="1.0" encoding="UTF-8"?>
<svg width="32px" height="32px" viewBox="0 0 32 32" version="1.1" xmlns="http://www.w3.org/2000/svg" xmlns:xlink="http://www.w3.org/1999/xlink">
    <title>BI_Instagram</title>
    <defs>
        <polygon id="path-1" points="-5.06853818e-13 3.3158661e-14 32 3.3158661e-14 32 32 -5.06853818e-13 32"></polygon>
    </defs>
    <g id="Symbols" stroke="none" stroke-width="1" fill="none" fill-rule="evenodd">
        <g id="Common/Mobile/Footer/375" transform="translate(-174.000000, -213.000000)">
            <g id="Footer">
                <g id="BI_Instagram" transform="translate(174.000000, 213.000000)">
                    <g id="Shape">
                        <mask id="mask-2" fill="white">
                            <use xlink:href="#path-1"></use>
                        </mask>
                        <g id="Clip-2"></g>
                        <path d="M16.0000318,9.9475983e-14 C11.6546609,9.9475983e-14 11.1097906,0.018418509 9.40322046,0.0962843437 C7.70020701,0.173959642 6.53710992,0.444457676 5.51939203,0.840011035 C4.46725058,1.24883842 3.57496909,1.79593165 2.68541861,2.68541861 C1.79593165,3.57496909 1.24883842,4.46725058 0.840011035,5.51939203 C0.444457676,6.53710992 0.173959642,7.70020701 0.0962843437,9.40322046 C0.018418509,11.1097906 -5.06853818e-13,11.6546609 -5.06853818e-13,16.0000318 C-5.06853818e-13,20.3453391 0.018418509,20.8902094 0.0962843437,22.5967795 C0.173959642,24.299793 0.444457676,25.4628901 0.840011035,26.480608 C1.24883842,27.5327494 1.79593165,28.4250309 2.68541861,29.3145814 C3.57496909,30.2040683 4.46725058,30.7511616 5.51939203,31.1600525 C6.53710992,31.5555423 7.70020701,31.8260404 9.40322046,31.9037157 C11.1097906,31.9815815 11.6546609,32 16.0000318,32 C20.3453391,32 20.8902094,31.9815815 22.5967795,31.9037157 C24.299793,31.8260404 25.4628901,31.5555423 26.480608,31.1600525 C27.5327494,30.7511616 28.4250309,30.2040683 29.3145814,29.3145814 C30.2040683,28.4250309 30.7511616,27.5327494 31.1600525,26.480608 C31.5555423,25.4628901 31.8260404,24.299793 31.9037157,22.5967795 C31.9815815,20.8902094 32,20.3453391 32,16.0000318 C32,11.6546609 31.9815815,11.1097906 31.9037157,9.40322046 C31.8260404,7.70020701 31.5555423,6.53710992 31.1600525,5.51939203 C30.7511616,4.46725058 30.2040683,3.57496909 29.3145814,2.68541861 C28.4250309,1.79593165 27.5327494,1.24883842 26.480608,0.840011035 C25.4628901,0.444457676 24.299793,0.173959642 22.5967795,0.0962843437 C20.8902094,0.018418509 20.3453391,9.9475983e-14 16.0000318,9.9475983e-14 Z M16.0000323,2.66666667 C20.3425919,2.66666667 20.8569978,2.68325832 22.5719425,2.7615038 C24.1576401,2.83380986 25.0187923,3.0987599 25.5918824,3.32148837 C26.3510314,3.6165229 26.8928103,3.96895036 27.4618977,4.5381023 C28.0310496,5.10718969 28.3834771,5.64896863 28.6785116,6.40811765 C28.9012401,6.98120769 29.1661901,7.84235989 29.2384962,9.42805749 C29.3167417,11.1430022 29.3333333,11.6574081 29.3333333,16.0000323 C29.3333333,20.3425919 29.3167417,20.8569978 29.2384962,22.5719425 C29.1661901,24.1576401 28.9012401,25.0187923 28.6785116,25.5918824 C28.3834771,26.3510314 28.0310496,26.8928103 27.4618977,27.4618977 C26.8928103,28.0310496 26.3510314,28.3834771 25.5918824,28.6785116 C25.0187923,28.9012401 24.1576401,29.1661901 22.5719425,29.2384962 C20.8572561,29.3167417 20.3429147,29.3333333 16.0000323,29.3333333 C11.6570853,29.3333333 11.1428085,29.3167417 9.42805749,29.2384962 C7.84235989,29.1661901 6.98120769,28.9012401 6.40811765,28.6785116 C5.64896863,28.3834771 5.10718969,28.0310496 4.5381023,27.4618977 C3.96901492,26.8928103 3.6165229,26.3510314 3.32148837,25.5918824 C3.0987599,25.0187923 2.83380986,24.1576401 2.7615038,22.5719425 C2.68325832,20.8569978 2.66666667,20.3425919 2.66666667,16.0000323 C2.66666667,11.6574081 2.68325832,11.1430022 2.7615038,9.42805749 C2.83380986,7.84235989 3.0987599,6.98120769 3.32148837,6.40811765 C3.6165229,5.64896863 3.96895036,5.10718969 4.5381023,4.5381023 C5.10718969,3.96895036 5.64896863,3.6165229 6.40811765,3.32148837 C6.98120769,3.0987599 7.84235989,2.83380986 9.42805749,2.7615038 C11.1430022,2.68325832 11.6574081,2.66666667 16.0000323,2.66666667 L16.0000323,2.66666667 Z" id="Fill-1" fill="#555555" mask="url(#mask-2)"></path>
                    </g>
                    <path d="M16.0000318,21.3333333 C13.0544676,21.3333333 10.6666667,18.9455324 10.6666667,16.0000318 C10.6666667,13.0544676 13.0544676,10.6666667 16.0000318,10.6666667 C18.9455324,10.6666667 21.3333333,13.0544676 21.3333333,16.0000318 C21.3333333,18.9455324 18.9455324,21.3333333 16.0000318,21.3333333 Z M16.0000309,8 C11.5816936,8 8,11.5816936 8,16.0000309 C8,20.4183064 11.5816936,24 16.0000309,24 C20.4183064,24 24,20.4183064 24,16.0000309 C24,11.5816936 20.4183064,8 16.0000309,8 L16.0000309,8 Z" id="Fill-4" fill="#555555"></path>
                    <path d="M26.6666667,7.33336641 C26.6666667,8.43794622 25.7712134,9.33333333 24.6666336,9.33333333 C23.5621199,9.33333333 22.6666667,8.43794622 22.6666667,7.33336641 C22.6666667,6.2287866 23.5621199,5.33333333 24.6666336,5.33333333 C25.7712134,5.33333333 26.6666667,6.2287866 26.6666667,7.33336641" id="Fill-5" fill="#555555"></path>
                </g>
            </g>
        </g>
    </g>
</svg>