<?xml version="1.0" encoding="utf-8"?>
<!-- Generator: Adobe Illustrator 22.0.1, SVG Export Plug-In . SVG Version: 6.00 Build 0)  -->
<svg version="1.1" id="레이어_1" xmlns="http://www.w3.org/2000/svg" xmlns:xlink="http://www.w3.org/1999/xlink" x="0px"
	 y="0px" viewBox="0 0 257 257" style="enable-background:new 0 0 257 257;" xml:space="preserve">
<style type="text/css">
	.st0{clip-path:url(#SVGID_2_);fill:none;}
	.st1{clip-path:url(#SVGID_2_);}
	.st2{fill:none;stroke:#F47721;stroke-miterlimit:10;}
</style>
<title>graphicelement01</title>
<g>
	<defs>
		<circle id="SVGID_1_" cx="128.5" cy="128.5" r="127.9"/>
	</defs>
	<clipPath id="SVGID_2_">
		<use xlink:href="#SVGID_1_"  style="overflow:visible;"/>
	</clipPath>
	<circle class="st0" cx="128.5" cy="128.5" r="127.9"/>
	<circle class="st0" cx="128.5" cy="128.5" r="127.9"/>
	<circle class="st0" cx="128.5" cy="128.5" r="127.9"/>
	<circle class="st0" cx="128.5" cy="128.5" r="127.9"/>
	<circle class="st0" cx="128.5" cy="128.5" r="127.9"/>
	<circle class="st0" cx="128.5" cy="128.5" r="127.9"/>
	<circle class="st0" cx="128.5" cy="128.5" r="127.9"/>
	<circle class="st0" cx="128.5" cy="128.5" r="127.9"/>
	<circle class="st0" cx="128.5" cy="128.5" r="127.9"/>
	<circle class="st0" cx="128.5" cy="128.5" r="127.9"/>
	<circle class="st0" cx="128.5" cy="128.5" r="127.9"/>
	<circle class="st0" cx="128.5" cy="128.5" r="127.9"/>
	<circle class="st0" cx="128.5" cy="128.5" r="127.9"/>
	<circle class="st0" cx="128.5" cy="128.5" r="127.9"/>
	<circle class="st0" cx="128.5" cy="128.5" r="127.9"/>
	<circle class="st0" cx="128.5" cy="128.5" r="127.9"/>
	<circle class="st0" cx="128.5" cy="128.5" r="127.9"/>
	<circle class="st0" cx="128.5" cy="128.5" r="127.9"/>
	<circle class="st0" cx="128.5" cy="128.5" r="127.9"/>
	<circle class="st0" cx="128.5" cy="128.5" r="127.9"/>
	<circle class="st0" cx="128.5" cy="128.5" r="127.9"/>
	<circle class="st0" cx="128.5" cy="128.5" r="127.9"/>
	<circle class="st0" cx="128.5" cy="128.5" r="127.9"/>
	<circle class="st0" cx="128.5" cy="128.5" r="127.9"/>
	<circle class="st0" cx="128.5" cy="128.5" r="127.9"/>
	<circle class="st0" cx="128.5" cy="128.5" r="127.9"/>
	<circle class="st0" cx="128.5" cy="128.5" r="127.9"/>
	<circle class="st0" cx="128.5" cy="128.5" r="127.9"/>
	<circle class="st0" cx="128.5" cy="128.5" r="127.9"/>
	<circle class="st0" cx="128.5" cy="128.5" r="127.9"/>
	<circle class="st0" cx="128.5" cy="128.5" r="127.9"/>
	<circle class="st0" cx="128.5" cy="128.5" r="127.9"/>
	<circle class="st0" cx="128.5" cy="128.5" r="127.9"/>
	<circle class="st0" cx="128.5" cy="128.5" r="127.9"/>
	<circle class="st0" cx="128.5" cy="128.5" r="127.9"/>
	<circle class="st0" cx="128.5" cy="128.5" r="127.9"/>
	<circle class="st0" cx="128.5" cy="128.5" r="127.9"/>
	<circle class="st0" cx="128.5" cy="128.5" r="127.9"/>
	<circle class="st0" cx="128.5" cy="128.5" r="127.9"/>
	<g class="st1">
		<line class="st2" x1="1.7" y1="296.7" x2="1.7" y2="-39.7"/>
		<line class="st2" x1="8.2" y1="296.7" x2="8.2" y2="-39.7"/>
		<line class="st2" x1="14.7" y1="296.7" x2="14.7" y2="-39.7"/>
		<line class="st2" x1="21.2" y1="296.7" x2="21.2" y2="-39.7"/>
		<line class="st2" x1="27.7" y1="296.7" x2="27.7" y2="-39.7"/>
		<line class="st2" x1="34.2" y1="296.7" x2="34.2" y2="-39.7"/>
		<line class="st2" x1="40.7" y1="296.7" x2="40.7" y2="-39.7"/>
		<line class="st2" x1="47.2" y1="296.7" x2="47.2" y2="-39.7"/>
		<line class="st2" x1="53.7" y1="296.7" x2="53.7" y2="-39.7"/>
		<line class="st2" x1="60.2" y1="296.7" x2="60.2" y2="-39.7"/>
		<line class="st2" x1="66.7" y1="296.7" x2="66.7" y2="-39.7"/>
		<line class="st2" x1="73.2" y1="296.7" x2="73.2" y2="-39.7"/>
		<line class="st2" x1="79.7" y1="296.7" x2="79.7" y2="-39.7"/>
		<line class="st2" x1="86.2" y1="296.7" x2="86.2" y2="-39.7"/>
		<line class="st2" x1="92.7" y1="296.7" x2="92.7" y2="-39.7"/>
		<line class="st2" x1="99.2" y1="296.7" x2="99.2" y2="-39.7"/>
		<line class="st2" x1="105.7" y1="296.7" x2="105.7" y2="-39.7"/>
		<line class="st2" x1="112.2" y1="296.7" x2="112.2" y2="-39.7"/>
		<line class="st2" x1="118.7" y1="296.7" x2="118.7" y2="-39.7"/>
		<line class="st2" x1="125.2" y1="296.7" x2="125.2" y2="-39.7"/>
		<line class="st2" x1="131.8" y1="296.7" x2="131.8" y2="-39.7"/>
		<line class="st2" x1="138.3" y1="296.7" x2="138.3" y2="-39.7"/>
		<line class="st2" x1="144.8" y1="296.7" x2="144.8" y2="-39.7"/>
		<line class="st2" x1="151.3" y1="296.7" x2="151.3" y2="-39.7"/>
		<line class="st2" x1="157.8" y1="296.7" x2="157.8" y2="-39.7"/>
		<line class="st2" x1="164.3" y1="296.7" x2="164.3" y2="-39.7"/>
		<line class="st2" x1="170.8" y1="296.7" x2="170.8" y2="-39.7"/>
		<line class="st2" x1="177.3" y1="296.7" x2="177.3" y2="-39.7"/>
		<line class="st2" x1="183.8" y1="296.7" x2="183.8" y2="-39.7"/>
		<line class="st2" x1="190.3" y1="296.7" x2="190.3" y2="-39.7"/>
		<line class="st2" x1="196.8" y1="296.7" x2="196.8" y2="-39.7"/>
		<line class="st2" x1="203.3" y1="296.7" x2="203.3" y2="-39.7"/>
		<line class="st2" x1="209.8" y1="296.7" x2="209.8" y2="-39.7"/>
		<line class="st2" x1="216.3" y1="296.7" x2="216.3" y2="-39.7"/>
		<line class="st2" x1="222.8" y1="296.7" x2="222.8" y2="-39.7"/>
		<line class="st2" x1="229.3" y1="296.7" x2="229.3" y2="-39.7"/>
		<line class="st2" x1="235.8" y1="296.7" x2="235.8" y2="-39.7"/>
		<line class="st2" x1="242.3" y1="296.7" x2="242.3" y2="-39.7"/>
		<line class="st2" x1="248.8" y1="296.7" x2="248.8" y2="-39.7"/>
		<line class="st2" x1="255.3" y1="296.7" x2="255.3" y2="-39.7"/>
	</g>
</g>
</svg>
