<?xml version="1.0" encoding="utf-8"?>
<!-- Generator: Adobe Illustrator 22.0.1, SVG Export Plug-In . SVG Version: 6.00 Build 0)  -->
<svg version="1.1" id="레이어_1" xmlns="http://www.w3.org/2000/svg" xmlns:xlink="http://www.w3.org/1999/xlink" x="0px"
	 y="0px" viewBox="0 0 257 257" style="enable-background:new 0 0 257 257;" xml:space="preserve">
<style type="text/css">
	.st0{clip-path:url(#SVGID_2_);}
	.st1{fill:none;stroke:#18A2FF;stroke-width:0.63;stroke-miterlimit:10;}
	.st2{fill:none;stroke:#F47721;stroke-width:0.63;stroke-miterlimit:10;}
</style>
<title>graphicelement02</title>
<g id="레이어_2_1_">
	<g id="Layer_1">
		<g>
			<defs>
				<circle id="SVGID_1_" cx="128.1" cy="128.6" r="127.9"/>
			</defs>
			<clipPath id="SVGID_2_">
				<use xlink:href="#SVGID_1_"  style="overflow:visible;"/>
			</clipPath>
			<g class="st0">
				<path class="st1" d="M71.5-21.9c0,0-6.3-5.5-14.2-5.5s-14.2,5.5-14.2,5.5s-6.3,5.5-14.1,5.5s-14.2-5.5-14.2-5.5
					s-6.3-5.5-14.2-5.5s-14.2,5.5-14.2,5.5s-6.3,5.5-14.2,5.5s-14.2-5.5-14.2-5.5"/>
				<path class="st1" d="M184.8-21.9c0,0-6.3-5.5-14.2-5.5s-14.2,5.5-14.2,5.5s-6.4,5.5-14.2,5.5s-14.2-5.5-14.2-5.5
					s-6.3-5.5-14.1-5.5s-14.2,5.5-14.2,5.5s-6.3,5.5-14.2,5.5s-14.2-5.5-14.2-5.5"/>
				<path class="st1" d="M298.1-21.9c0,0-6.3-5.5-14.1-5.5s-14.2,5.5-14.2,5.5s-6.3,5.5-14.2,5.5c-7.8,0-14.2-5.5-14.2-5.5
					s-6.4-5.5-14.2-5.5s-14.2,5.5-14.2,5.5s-6.3,5.5-14.2,5.5s-14.2-5.5-14.2-5.5"/>
				<path class="st1" d="M71.5-14.9c0,0-6.3-5.6-14.2-5.6s-14.2,5.6-14.2,5.6S36.8-9.4,29-9.4s-14.2-5.5-14.2-5.5s-6.4-5.6-14.2-5.6
					s-14.2,5.6-14.2,5.6s-6.3,5.5-14.2,5.5s-14.2-5.5-14.2-5.5"/>
				<path class="st1" d="M184.8-14.9c0,0-6.3-5.6-14.2-5.6s-14.2,5.6-14.2,5.6s-6.4,5.5-14.2,5.5s-14.2-5.5-14.2-5.5
					s-6.3-5.6-14.1-5.6s-14.2,5.6-14.2,5.6s-6.3,5.5-14.2,5.5s-14.2-5.5-14.2-5.5"/>
				<path class="st1" d="M298.1-14.9c0,0-6.3-5.6-14.1-5.6s-14.2,5.6-14.2,5.6s-6.3,5.5-14.2,5.5c-7.8,0-14.2-5.5-14.2-5.5
					s-6.4-5.6-14.2-5.6s-14.2,5.6-14.2,5.6s-6.3,5.5-14.2,5.5s-14.2-5.5-14.2-5.5"/>
				<path class="st1" d="M71.5-7.9c0,0-6.3-5.6-14.2-5.6S43.1-7.9,43.1-7.9S36.8-2.4,29-2.4S14.9-7.9,14.9-7.9s-6.3-5.6-14.2-5.6
					s-14.2,5.6-14.2,5.6s-6.3,5.5-14.2,5.5s-14.2-5.5-14.2-5.5"/>
				<path class="st1" d="M184.8-7.9c0,0-6.3-5.6-14.2-5.6s-14.2,5.6-14.2,5.6s-6.4,5.6-14.2,5.6s-14.2-5.5-14.2-5.5
					s-6.3-5.6-14.2-5.6S99.8-7.9,99.8-7.9s-6.3,5.5-14.2,5.5S71.5-7.9,71.5-7.9"/>
				<path class="st1" d="M298.1-7.9c0,0-6.3-5.6-14.2-5.6s-14.2,5.6-14.2,5.6s-6.3,5.6-14.2,5.6c-7.8,0-14.2-5.5-14.2-5.5
					s-6.4-5.6-14.2-5.6s-14.2,5.6-14.2,5.6s-6.3,5.5-14.2,5.5s-14.2-5.5-14.2-5.5"/>
				<path class="st1" d="M71.5-0.9c0,0-6.3-5.5-14.2-5.5S43.1-0.9,43.1-0.9S36.8,4.6,29,4.6S14.9-0.9,14.9-0.9S8.5-6.5,0.7-6.5
					s-14.2,5.5-14.2,5.5s-6.3,5.5-14.2,5.5s-14.2-5.5-14.2-5.5"/>
				<path class="st1" d="M184.8-0.9c0,0-6.3-5.5-14.2-5.5s-14.2,5.5-14.2,5.5s-6.4,5.5-14.2,5.5s-14.2-5.5-14.2-5.5
					s-6.3-5.5-14.2-5.5S99.8-0.9,99.8-0.9s-6.3,5.5-14.2,5.5S71.5-0.9,71.5-0.9"/>
				<path class="st1" d="M298.1-0.9c0,0-6.3-5.5-14.2-5.5s-14.2,5.5-14.2,5.5s-6.3,5.5-14.2,5.5c-7.8,0-14.2-5.5-14.2-5.5
					s-6.4-5.5-14.2-5.5s-14.2,5.5-14.2,5.5s-6.3,5.5-14.2,5.5s-14.2-5.5-14.2-5.5"/>
				<path class="st1" d="M71.5,6.1c0,0-6.3-5.5-14.2-5.5S43.1,6.1,43.1,6.1s-6.3,5.5-14.1,5.5S14.9,6.1,14.9,6.1S8.5,0.5,0.7,0.5
					s-14.2,5.5-14.2,5.5s-6.3,5.5-14.2,5.5s-14.2-5.5-14.2-5.5"/>
				<path class="st1" d="M184.8,6.1c0,0-6.3-5.5-14.2-5.5s-14.2,5.5-14.2,5.5s-6.4,5.5-14.2,5.5s-14.2-5.5-14.2-5.5
					s-6.3-5.5-14.2-5.5S99.8,6.1,99.8,6.1s-6.3,5.5-14.2,5.5S71.5,6.1,71.5,6.1"/>
				<path class="st1" d="M298.1,6.1c0,0-6.3-5.5-14.2-5.5s-14.2,5.5-14.2,5.5s-6.3,5.5-14.2,5.5c-7.8,0-14.2-5.5-14.2-5.5
					s-6.4-5.5-14.2-5.5s-14.2,5.5-14.2,5.5s-6.3,5.5-14.2,5.5s-14.2-5.5-14.2-5.5"/>
				<path class="st1" d="M71.5,13.1c0,0-6.3-5.5-14.2-5.5s-14.2,5.5-14.2,5.5s-6.3,5.5-14.1,5.5s-14.2-5.5-14.2-5.5S8.5,7.5,0.7,7.5
					s-14.2,5.5-14.2,5.5s-6.3,5.5-14.2,5.5s-14.2-5.5-14.2-5.5"/>
				<path class="st1" d="M184.8,13.1c0,0-6.3-5.5-14.2-5.5s-14.2,5.5-14.2,5.5s-6.4,5.5-14.2,5.5s-14.2-5.5-14.2-5.5
					s-6.3-5.5-14.2-5.5s-14.2,5.5-14.2,5.5s-6.3,5.5-14.2,5.5s-14.2-5.5-14.2-5.5"/>
				<path class="st1" d="M298.1,13.1c0,0-6.3-5.5-14.2-5.5s-14.2,5.5-14.2,5.5s-6.3,5.5-14.2,5.5c-7.8,0-14.2-5.5-14.2-5.5
					s-6.4-5.5-14.2-5.5s-14.2,5.5-14.2,5.5s-6.3,5.5-14.2,5.5s-14.2-5.5-14.2-5.5"/>
				<path class="st1" d="M71.5,20.1c0,0-6.3-5.5-14.2-5.5s-14.2,5.5-14.2,5.5s-6.3,5.5-14.1,5.5s-14.2-5.5-14.2-5.5
					s-6.3-5.5-14.2-5.5s-14.2,5.5-14.2,5.5s-6.3,5.5-14.2,5.5s-14.2-5.5-14.2-5.5"/>
				<path class="st1" d="M184.8,20.1c0,0-6.3-5.5-14.2-5.5s-14.2,5.5-14.2,5.5s-6.4,5.5-14.2,5.5s-14.2-5.5-14.2-5.5
					s-6.3-5.5-14.2-5.5s-14.2,5.5-14.2,5.5s-6.3,5.5-14.2,5.5s-14.2-5.5-14.2-5.5"/>
				<path class="st1" d="M298.1,20.1c0,0-6.3-5.5-14.2-5.5s-14.2,5.5-14.2,5.5s-6.3,5.5-14.2,5.5c-7.8,0-14.2-5.5-14.2-5.5
					s-6.4-5.5-14.2-5.5s-14.2,5.5-14.2,5.5s-6.3,5.5-14.2,5.5s-14.2-5.5-14.2-5.5"/>
				<path class="st1" d="M71.5,27.1c0,0-6.3-5.5-14.2-5.5s-14.2,5.5-14.2,5.5s-6.3,5.6-14.1,5.6s-14.2-5.6-14.2-5.6
					s-6.3-5.5-14.2-5.5s-14.2,5.5-14.2,5.5s-6.3,5.6-14.2,5.6s-14.2-5.6-14.2-5.6"/>
				<path class="st1" d="M184.8,27.1c0,0-6.3-5.5-14.2-5.5s-14.2,5.5-14.2,5.5s-6.4,5.6-14.2,5.6s-14.2-5.6-14.2-5.6
					s-6.3-5.5-14.2-5.5s-14.2,5.5-14.2,5.5s-6.3,5.6-14.2,5.6s-14.2-5.6-14.2-5.6"/>
				<path class="st1" d="M298.1,27.1c0,0-6.3-5.5-14.2-5.5s-14.2,5.5-14.2,5.5s-6.3,5.6-14.2,5.6c-7.8,0-14.2-5.6-14.2-5.6
					s-6.4-5.5-14.2-5.5s-14.2,5.5-14.2,5.5s-6.3,5.6-14.2,5.6s-14.2-5.6-14.2-5.6"/>
				<path class="st1" d="M71.5,34.1c0,0-6.3-5.6-14.2-5.6s-14.2,5.6-14.2,5.6s-6.3,5.5-14.1,5.5s-14.2-5.5-14.2-5.5
					s-6.3-5.6-14.2-5.6s-14.2,5.6-14.2,5.6s-6.3,5.5-14.2,5.5s-14.2-5.5-14.2-5.5"/>
				<path class="st1" d="M184.8,34.1c0,0-6.3-5.6-14.2-5.6s-14.2,5.6-14.2,5.6s-6.4,5.5-14.2,5.5s-14.2-5.5-14.2-5.5
					s-6.3-5.6-14.2-5.6s-14.2,5.6-14.2,5.6s-6.3,5.5-14.2,5.5s-14.2-5.5-14.2-5.5"/>
				<path class="st1" d="M298.1,34.1c0,0-6.3-5.6-14.2-5.6s-14.2,5.6-14.2,5.6s-6.3,5.5-14.2,5.5c-7.8,0-14.2-5.5-14.2-5.5
					s-6.4-5.6-14.2-5.6s-14.2,5.6-14.2,5.6s-6.3,5.5-14.2,5.5s-14.2-5.5-14.2-5.5"/>
				<path class="st1" d="M71.5,41.1c0,0-6.3-5.5-14.2-5.5s-14.2,5.5-14.2,5.5s-6.3,5.5-14.1,5.5s-14.2-5.5-14.2-5.5
					s-6.3-5.5-14.2-5.5s-14.2,5.5-14.2,5.5s-6.3,5.6-14.2,5.6s-14.2-5.6-14.2-5.6"/>
				<path class="st1" d="M184.8,41.1c0,0-6.3-5.5-14.2-5.5s-14.2,5.5-14.2,5.5s-6.4,5.6-14.2,5.6s-14.2-5.6-14.2-5.6
					s-6.3-5.5-14.2-5.5s-14.2,5.5-14.2,5.5s-6.3,5.6-14.2,5.6s-14.2-5.6-14.2-5.6"/>
				<path class="st1" d="M298.1,41.1c0,0-6.3-5.5-14.2-5.5s-14.2,5.5-14.2,5.5s-6.3,5.6-14.2,5.6c-7.8,0-14.2-5.6-14.2-5.6
					s-6.4-5.5-14.2-5.5s-14.2,5.5-14.2,5.5s-6.3,5.6-14.2,5.6s-14.2-5.6-14.2-5.6"/>
				<path class="st1" d="M71.5,48.1c0,0-6.3-5.5-14.2-5.5s-14.2,5.5-14.2,5.5s-6.3,5.5-14.1,5.5s-14.2-5.5-14.2-5.5
					s-6.3-5.5-14.2-5.5s-14.2,5.5-14.2,5.5s-6.3,5.6-14.2,5.6s-14.2-5.6-14.2-5.6"/>
				<path class="st1" d="M184.8,48.1c0,0-6.3-5.5-14.2-5.5s-14.2,5.5-14.2,5.5s-6.4,5.6-14.2,5.6s-14.2-5.6-14.2-5.6
					s-6.3-5.5-14.2-5.5s-14.2,5.5-14.2,5.5s-6.3,5.6-14.2,5.6s-14.2-5.6-14.2-5.6"/>
				<path class="st1" d="M298.1,48.1c0,0-6.3-5.5-14.2-5.5s-14.2,5.5-14.2,5.5s-6.3,5.6-14.2,5.6c-7.8,0-14.2-5.6-14.2-5.6
					s-6.4-5.5-14.2-5.5s-14.2,5.5-14.2,5.5s-6.3,5.6-14.2,5.6s-14.2-5.6-14.2-5.6"/>
				<path class="st1" d="M71.5,55.1c0,0-6.3-5.6-14.2-5.6s-14.2,5.6-14.2,5.6s-6.3,5.5-14.1,5.5s-14.2-5.6-14.2-5.6
					s-6.3-5.6-14.2-5.6s-14.2,5.6-14.2,5.6s-6.3,5.6-14.2,5.6s-14.2-5.5-14.2-5.5"/>
				<path class="st1" d="M184.8,55.1c0,0-6.3-5.6-14.2-5.6s-14.2,5.6-14.2,5.6s-6.4,5.6-14.2,5.6s-14.2-5.6-14.2-5.6
					s-6.3-5.6-14.2-5.6s-14.2,5.6-14.2,5.6s-6.3,5.6-14.2,5.6s-14.2-5.6-14.2-5.6"/>
				<path class="st1" d="M298.1,55.1c0,0-6.3-5.6-14.2-5.6s-14.2,5.6-14.2,5.6s-6.3,5.6-14.2,5.6c-7.8,0-14.2-5.6-14.2-5.6
					s-6.4-5.6-14.2-5.6s-14.2,5.6-14.2,5.6s-6.3,5.6-14.2,5.6s-14.2-5.6-14.2-5.6"/>
				<path class="st1" d="M71.5,62.1c0,0-6.3-5.5-14.2-5.5s-14.2,5.5-14.2,5.5s-6.3,5.5-14.1,5.5s-14.2-5.6-14.2-5.6
					s-6.3-5.5-14.2-5.5s-14.2,5.5-14.2,5.5s-6.3,5.6-14.2,5.6s-14.2-5.5-14.2-5.5"/>
				<path class="st1" d="M184.8,62.1c0,0-6.3-5.5-14.2-5.5s-14.2,5.5-14.2,5.5s-6.4,5.6-14.2,5.6s-14.2-5.6-14.2-5.6
					s-6.3-5.5-14.2-5.5s-14.2,5.5-14.2,5.5s-6.3,5.6-14.2,5.6s-14.2-5.6-14.2-5.6"/>
				<path class="st1" d="M298.1,62.1c0,0-6.3-5.5-14.2-5.5s-14.2,5.5-14.2,5.5s-6.3,5.6-14.2,5.6c-7.8,0-14.2-5.6-14.2-5.6
					s-6.4-5.5-14.2-5.5s-14.2,5.5-14.2,5.5s-6.3,5.6-14.2,5.6s-14.2-5.6-14.2-5.6"/>
				<path class="st1" d="M71.5,69.1c0,0-6.3-5.6-14.2-5.6s-14.2,5.6-14.2,5.6s-6.3,5.6-14.2,5.6s-14.2-5.6-14.2-5.6
					s-6.3-5.6-14.2-5.6s-14.2,5.6-14.2,5.6s-6.3,5.6-14.2,5.6s-14.2-5.6-14.2-5.6"/>
				<path class="st1" d="M184.8,69.1c0,0-6.3-5.6-14.2-5.6s-14.2,5.6-14.2,5.6s-6.4,5.6-14.2,5.6s-14.2-5.6-14.2-5.6
					s-6.3-5.6-14.2-5.6s-14.2,5.6-14.2,5.6s-6.3,5.6-14.2,5.6s-14.2-5.6-14.2-5.6"/>
				<path class="st1" d="M298.1,69.1c0,0-6.3-5.6-14.2-5.6s-14.2,5.6-14.2,5.6s-6.3,5.6-14.2,5.6c-7.8,0-14.2-5.6-14.2-5.6
					s-6.4-5.6-14.2-5.6s-14.2,5.6-14.2,5.6s-6.3,5.6-14.2,5.6s-14.2-5.6-14.2-5.6"/>
				<path class="st1" d="M71.5,76.1c0,0-6.3-5.6-14.2-5.6s-14.2,5.6-14.2,5.6s-6.3,5.6-14.2,5.6s-14.2-5.6-14.2-5.6
					s-6.3-5.6-14.2-5.6s-14.2,5.6-14.2,5.6s-6.3,5.6-14.2,5.6s-14.2-5.6-14.2-5.6"/>
				<path class="st1" d="M184.8,76.1c0,0-6.3-5.6-14.2-5.6s-14.2,5.6-14.2,5.6s-6.4,5.6-14.2,5.6s-14.2-5.6-14.2-5.6
					s-6.3-5.6-14.2-5.6s-14.2,5.6-14.2,5.6s-6.3,5.6-14.2,5.6s-14.2-5.6-14.2-5.6"/>
				<path class="st1" d="M298.1,76.1c0,0-6.3-5.6-14.2-5.6s-14.2,5.6-14.2,5.6s-6.3,5.6-14.2,5.6c-7.8,0-14.2-5.6-14.2-5.6
					s-6.4-5.6-14.2-5.6s-14.2,5.6-14.2,5.6s-6.3,5.6-14.2,5.6s-14.2-5.6-14.2-5.6"/>
				<path class="st1" d="M71.5,83.1c0,0-6.3-5.6-14.2-5.6s-14.2,5.6-14.2,5.6s-6.3,5.6-14.2,5.6s-14.2-5.6-14.2-5.6
					s-6.3-5.6-14.2-5.6s-14.2,5.6-14.2,5.6s-6.3,5.6-14.2,5.6s-14.2-5.6-14.2-5.6"/>
				<path class="st1" d="M184.8,83.1c0,0-6.3-5.6-14.2-5.6s-14.2,5.6-14.2,5.6s-6.4,5.6-14.2,5.6s-14.2-5.6-14.2-5.6
					s-6.3-5.6-14.2-5.6s-14.2,5.6-14.2,5.6s-6.3,5.6-14.2,5.6s-14.2-5.6-14.2-5.6"/>
				<path class="st1" d="M298.1,83.1c0,0-6.3-5.6-14.2-5.6s-14.2,5.6-14.2,5.6s-6.3,5.6-14.2,5.6c-7.8,0-14.2-5.6-14.2-5.6
					s-6.4-5.6-14.2-5.6s-14.2,5.6-14.2,5.6s-6.3,5.6-14.2,5.6s-14.2-5.6-14.2-5.6"/>
				<path class="st1" d="M71.5,90.1c0,0-6.3-5.6-14.2-5.6s-14.2,5.6-14.2,5.6s-6.3,5.6-14.2,5.6s-14.2-5.6-14.2-5.6
					s-6.3-5.6-14.2-5.6s-14.2,5.6-14.2,5.6s-6.3,5.6-14.2,5.6s-14.2-5.6-14.2-5.6"/>
				<path class="st1" d="M184.8,90.1c0,0-6.3-5.6-14.2-5.6s-14.2,5.6-14.2,5.6s-6.4,5.6-14.2,5.6s-14.2-5.6-14.2-5.6
					s-6.3-5.6-14.2-5.6s-14.2,5.6-14.2,5.6s-6.3,5.6-14.2,5.6s-14.2-5.6-14.2-5.6"/>
				<path class="st1" d="M298.1,90.1c0,0-6.3-5.6-14.2-5.6s-14.2,5.6-14.2,5.6s-6.3,5.6-14.2,5.6c-7.8,0-14.2-5.6-14.2-5.6
					s-6.4-5.6-14.2-5.6s-14.2,5.6-14.2,5.6s-6.3,5.6-14.2,5.6s-14.2-5.6-14.2-5.6"/>
				<path class="st1" d="M71.5,97.1c0,0-6.3-5.6-14.2-5.6s-14.2,5.6-14.2,5.6s-6.3,5.5-14.2,5.5s-14.2-5.5-14.2-5.5
					s-6.3-5.6-14.2-5.6s-14.2,5.6-14.2,5.6s-6.3,5.5-14.2,5.5s-14.2-5.5-14.2-5.5"/>
				<path class="st1" d="M184.8,97.1c0,0-6.3-5.6-14.2-5.6s-14.2,5.6-14.2,5.6s-6.4,5.5-14.2,5.5s-14.2-5.5-14.2-5.5
					s-6.3-5.6-14.2-5.6s-14.2,5.6-14.2,5.6s-6.3,5.5-14.2,5.5s-14.2-5.5-14.2-5.5"/>
				<path class="st1" d="M298.1,97.1c0,0-6.3-5.6-14.2-5.6s-14.2,5.6-14.2,5.6s-6.3,5.5-14.2,5.5c-7.8,0-14.2-5.5-14.2-5.5
					s-6.4-5.6-14.2-5.6s-14.2,5.6-14.2,5.6s-6.3,5.5-14.2,5.5s-14.2-5.5-14.2-5.5"/>
				<path class="st1" d="M71.5,104.1c0,0-6.3-5.6-14.2-5.6s-14.2,5.6-14.2,5.6s-6.3,5.6-14.2,5.6s-14.2-5.6-14.2-5.6
					s-6.3-5.6-14.2-5.6s-14.2,5.6-14.2,5.6s-6.3,5.6-14.2,5.6s-14.2-5.6-14.2-5.6"/>
				<path class="st1" d="M184.8,104.1c0,0-6.3-5.6-14.2-5.6s-14.2,5.6-14.2,5.6s-6.4,5.6-14.2,5.6s-14.2-5.6-14.2-5.6
					s-6.3-5.6-14.2-5.6s-14.2,5.6-14.2,5.6s-6.3,5.6-14.2,5.6s-14.2-5.6-14.2-5.6"/>
				<path class="st1" d="M298.1,104.1c0,0-6.3-5.6-14.2-5.6s-14.2,5.6-14.2,5.6s-6.3,5.6-14.2,5.6c-7.8,0-14.2-5.6-14.2-5.6
					s-6.4-5.6-14.2-5.6s-14.2,5.6-14.2,5.6s-6.3,5.6-14.2,5.6s-14.2-5.6-14.2-5.6"/>
				<path class="st1" d="M71.5,111.1c0,0-6.3-5.5-14.2-5.5s-14.2,5.5-14.2,5.5s-6.3,5.6-14.2,5.6s-14.2-5.6-14.2-5.6
					s-6.3-5.5-14.2-5.5s-14.2,5.5-14.2,5.5s-6.3,5.6-14.2,5.6s-14.2-5.6-14.2-5.6"/>
				<path class="st1" d="M184.8,111.1c0,0-6.3-5.5-14.2-5.5s-14.2,5.5-14.2,5.5s-6.4,5.6-14.2,5.6s-14.2-5.6-14.2-5.6
					s-6.3-5.5-14.2-5.5s-14.2,5.5-14.2,5.5s-6.3,5.6-14.2,5.6s-14.2-5.6-14.2-5.6"/>
				<path class="st1" d="M298.1,111.1c0,0-6.3-5.5-14.2-5.5s-14.2,5.5-14.2,5.5s-6.3,5.6-14.2,5.6c-7.8,0-14.2-5.6-14.2-5.6
					s-6.4-5.5-14.2-5.5s-14.2,5.5-14.2,5.5s-6.3,5.6-14.2,5.6s-14.2-5.6-14.2-5.6"/>
				<path class="st1" d="M71.5,118.2c0,0-6.3-5.6-14.2-5.6s-14.2,5.6-14.2,5.6s-6.3,5.5-14.1,5.5s-14.2-5.5-14.2-5.5
					s-6.3-5.6-14.2-5.6s-14.2,5.6-14.2,5.6s-6.3,5.6-14.2,5.6s-14.2-5.6-14.2-5.6"/>
				<path class="st1" d="M184.8,118.2c0,0-6.3-5.6-14.2-5.6s-14.2,5.6-14.2,5.6s-6.4,5.6-14.2,5.6s-14.2-5.6-14.2-5.6
					s-6.3-5.6-14.2-5.6s-14.2,5.6-14.2,5.6s-6.3,5.6-14.2,5.6s-14.2-5.6-14.2-5.6"/>
				<path class="st1" d="M298.1,118.2c0,0-6.3-5.6-14.2-5.6s-14.2,5.6-14.2,5.6s-6.3,5.6-14.2,5.6c-7.8,0-14.2-5.6-14.2-5.6
					s-6.4-5.6-14.2-5.6s-14.2,5.6-14.2,5.6s-6.3,5.6-14.2,5.6s-14.2-5.6-14.2-5.6"/>
				<path class="st1" d="M71.5,125.2c0,0-6.3-5.6-14.2-5.6s-14.2,5.6-14.2,5.6s-6.3,5.5-14.1,5.5s-14.2-5.5-14.2-5.5
					s-6.3-5.6-14.2-5.6s-14.2,5.6-14.2,5.6s-6.3,5.6-14.2,5.6s-14.2-5.6-14.2-5.6"/>
				<path class="st1" d="M184.8,125.2c0,0-6.3-5.6-14.2-5.6s-14.2,5.6-14.2,5.6s-6.4,5.6-14.2,5.6s-14.2-5.6-14.2-5.6
					s-6.3-5.6-14.2-5.6s-14.2,5.6-14.2,5.6s-6.3,5.6-14.2,5.6s-14.2-5.6-14.2-5.6"/>
				<path class="st1" d="M298.1,125.2c0,0-6.3-5.6-14.2-5.6s-14.2,5.6-14.2,5.6s-6.3,5.6-14.2,5.6c-7.8,0-14.2-5.6-14.2-5.6
					s-6.4-5.6-14.2-5.6s-14.2,5.6-14.2,5.6s-6.3,5.6-14.2,5.6s-14.2-5.6-14.2-5.6"/>
				<path class="st1" d="M71.5,132.2c0,0-6.3-5.6-14.2-5.6s-14.2,5.6-14.2,5.6s-6.3,5.6-14.2,5.6s-14.2-5.6-14.2-5.6
					s-6.3-5.6-14.2-5.6s-14.2,5.6-14.2,5.6s-6.3,5.6-14.2,5.6s-14.2-5.6-14.2-5.6"/>
				<path class="st1" d="M184.8,132.2c0,0-6.3-5.6-14.2-5.6s-14.2,5.6-14.2,5.6s-6.4,5.6-14.2,5.6s-14.2-5.6-14.2-5.6
					s-6.3-5.6-14.2-5.6s-14.2,5.6-14.2,5.6s-6.3,5.6-14.2,5.6s-14.2-5.6-14.2-5.6"/>
				<path class="st1" d="M298.1,132.2c0,0-6.3-5.6-14.2-5.6s-14.2,5.6-14.2,5.6s-6.3,5.6-14.2,5.6c-7.8,0-14.2-5.6-14.2-5.6
					s-6.4-5.6-14.2-5.6s-14.2,5.6-14.2,5.6s-6.3,5.6-14.2,5.6s-14.2-5.6-14.2-5.6"/>
				<path class="st1" d="M71.5,139.2c0,0-6.3-5.6-14.2-5.6s-14.2,5.6-14.2,5.6s-6.3,5.6-14.2,5.6s-14.2-5.6-14.2-5.6
					s-6.3-5.6-14.2-5.6s-14.2,5.6-14.2,5.6s-6.3,5.6-14.2,5.6s-14.2-5.6-14.2-5.6"/>
				<path class="st1" d="M184.8,139.2c0,0-6.3-5.6-14.2-5.6s-14.2,5.6-14.2,5.6s-6.4,5.6-14.2,5.6s-14.2-5.6-14.2-5.6
					s-6.3-5.6-14.2-5.6s-14.2,5.6-14.2,5.6s-6.3,5.6-14.2,5.6s-14.2-5.6-14.2-5.6"/>
				<path class="st1" d="M298.1,139.2c0,0-6.3-5.6-14.2-5.6s-14.2,5.6-14.2,5.6s-6.3,5.6-14.2,5.6c-7.8,0-14.2-5.6-14.2-5.6
					s-6.4-5.6-14.2-5.6s-14.2,5.6-14.2,5.6s-6.3,5.6-14.2,5.6s-14.2-5.6-14.2-5.6"/>
				<path class="st1" d="M71.5,146.2c0,0-6.3-5.6-14.2-5.6s-14.2,5.6-14.2,5.6s-6.3,5.5-14.2,5.5s-14.2-5.5-14.2-5.5
					s-6.3-5.6-14.2-5.6s-14.2,5.6-14.2,5.6s-6.3,5.5-14.2,5.5s-14.2-5.5-14.2-5.5"/>
				<path class="st1" d="M184.8,146.2c0,0-6.3-5.6-14.2-5.6s-14.2,5.6-14.2,5.6s-6.4,5.5-14.2,5.5s-14.2-5.5-14.2-5.5
					s-6.3-5.6-14.2-5.6s-14.2,5.6-14.2,5.6s-6.3,5.5-14.2,5.5s-14.2-5.5-14.2-5.5"/>
				<path class="st1" d="M298.1,146.2c0,0-6.3-5.6-14.2-5.6s-14.2,5.6-14.2,5.6s-6.3,5.5-14.2,5.5c-7.8,0-14.2-5.5-14.2-5.5
					s-6.4-5.6-14.2-5.6s-14.2,5.6-14.2,5.6s-6.3,5.5-14.2,5.5s-14.2-5.5-14.2-5.5"/>
				<path class="st1" d="M71.5,153.2c0,0-6.3-5.6-14.2-5.6s-14.2,5.6-14.2,5.6s-6.3,5.6-14.2,5.6s-14.2-5.6-14.2-5.6
					s-6.3-5.6-14.2-5.6s-14.2,5.6-14.2,5.6s-6.3,5.6-14.2,5.6s-14.2-5.6-14.2-5.6"/>
				<path class="st1" d="M184.8,153.2c0,0-6.3-5.6-14.2-5.6s-14.2,5.6-14.2,5.6s-6.4,5.6-14.2,5.6s-14.2-5.6-14.2-5.6
					s-6.3-5.6-14.2-5.6s-14.2,5.6-14.2,5.6s-6.3,5.6-14.2,5.6s-14.2-5.6-14.2-5.6"/>
				<path class="st1" d="M298.1,153.2c0,0-6.3-5.6-14.2-5.6s-14.2,5.6-14.2,5.6s-6.3,5.6-14.2,5.6c-7.8,0-14.2-5.6-14.2-5.6
					s-6.4-5.6-14.2-5.6s-14.2,5.6-14.2,5.6s-6.3,5.6-14.2,5.6s-14.2-5.6-14.2-5.6"/>
				<path class="st1" d="M71.5,160.2c0,0-6.3-5.5-14.2-5.5s-14.2,5.5-14.2,5.5s-6.3,5.6-14.2,5.6s-14.2-5.6-14.2-5.6
					s-6.3-5.5-14.2-5.5s-14.2,5.5-14.2,5.5s-6.3,5.6-14.2,5.6s-14.2-5.6-14.2-5.6"/>
				<path class="st1" d="M184.8,160.2c0,0-6.3-5.5-14.2-5.5s-14.2,5.5-14.2,5.5s-6.4,5.6-14.2,5.6s-14.2-5.6-14.2-5.6
					s-6.3-5.5-14.2-5.5s-14.2,5.5-14.2,5.5s-6.3,5.6-14.2,5.6s-14.2-5.6-14.2-5.6"/>
				<path class="st1" d="M298.1,160.2c0,0-6.3-5.5-14.2-5.5s-14.2,5.5-14.2,5.5s-6.3,5.6-14.2,5.6c-7.8,0-14.2-5.6-14.2-5.6
					s-6.4-5.5-14.2-5.5s-14.2,5.5-14.2,5.5s-6.3,5.6-14.2,5.6s-14.2-5.6-14.2-5.6"/>
				<path class="st1" d="M71.5,167.2c0,0-6.3-5.6-14.2-5.6s-14.2,5.6-14.2,5.6s-6.3,5.6-14.2,5.6s-14.2-5.6-14.2-5.6
					s-6.3-5.6-14.2-5.6s-14.2,5.6-14.2,5.6s-6.3,5.6-14.2,5.6s-14.2-5.6-14.2-5.6"/>
				<path class="st1" d="M184.8,167.2c0,0-6.3-5.6-14.2-5.6s-14.2,5.6-14.2,5.6s-6.4,5.6-14.2,5.6s-14.2-5.6-14.2-5.6
					s-6.3-5.6-14.2-5.6s-14.2,5.6-14.2,5.6s-6.3,5.6-14.2,5.6s-14.2-5.6-14.2-5.6"/>
				<path class="st1" d="M298.1,167.2c0,0-6.3-5.6-14.2-5.6s-14.2,5.6-14.2,5.6s-6.3,5.6-14.2,5.6c-7.8,0-14.2-5.6-14.2-5.6
					s-6.4-5.6-14.2-5.6s-14.2,5.6-14.2,5.6s-6.3,5.6-14.2,5.6s-14.2-5.6-14.2-5.6"/>
				<path class="st1" d="M71.5,174.2c0,0-6.3-5.6-14.2-5.6s-14.2,5.6-14.2,5.6s-6.3,5.6-14.2,5.6s-14.2-5.6-14.2-5.6
					s-6.3-5.6-14.2-5.6s-14.2,5.6-14.2,5.6s-6.3,5.6-14.2,5.6s-14.2-5.6-14.2-5.6"/>
				<path class="st1" d="M184.8,174.2c0,0-6.3-5.6-14.2-5.6s-14.2,5.6-14.2,5.6s-6.4,5.6-14.2,5.6s-14.2-5.6-14.2-5.6
					s-6.3-5.6-14.2-5.6s-14.2,5.6-14.2,5.6s-6.3,5.6-14.2,5.6s-14.2-5.6-14.2-5.6"/>
				<path class="st1" d="M298.1,174.2c0,0-6.3-5.6-14.2-5.6s-14.2,5.6-14.2,5.6s-6.3,5.6-14.2,5.6c-7.8,0-14.2-5.6-14.2-5.6
					s-6.4-5.6-14.2-5.6s-14.2,5.6-14.2,5.6s-6.3,5.6-14.2,5.6s-14.2-5.6-14.2-5.6"/>
				<path class="st1" d="M71.5,181.2c0,0-6.3-5.6-14.2-5.6s-14.2,5.6-14.2,5.6s-6.3,5.6-14.2,5.6s-14.2-5.6-14.2-5.6
					s-6.3-5.6-14.2-5.6s-14.2,5.6-14.2,5.6s-6.3,5.6-14.2,5.6s-14.2-5.6-14.2-5.6"/>
				<path class="st1" d="M184.8,181.2c0,0-6.3-5.6-14.2-5.6s-14.2,5.6-14.2,5.6s-6.4,5.6-14.2,5.6s-14.2-5.6-14.2-5.6
					s-6.3-5.6-14.2-5.6s-14.2,5.6-14.2,5.6s-6.3,5.6-14.2,5.6s-14.2-5.6-14.2-5.6"/>
				<path class="st1" d="M298.1,181.2c0,0-6.3-5.6-14.2-5.6s-14.2,5.6-14.2,5.6s-6.3,5.6-14.2,5.6c-7.8,0-14.2-5.6-14.2-5.6
					s-6.4-5.6-14.2-5.6s-14.2,5.6-14.2,5.6s-6.3,5.6-14.2,5.6s-14.2-5.6-14.2-5.6"/>
				<path class="st1" d="M71.5,188.2c0,0-6.3-5.6-14.2-5.6s-14.2,5.6-14.2,5.6s-6.3,5.6-14.2,5.6s-14.2-5.6-14.2-5.6
					s-6.3-5.6-14.2-5.6s-14.2,5.6-14.2,5.6s-6.3,5.6-14.2,5.6s-14.2-5.6-14.2-5.6"/>
				<path class="st1" d="M184.8,188.2c0,0-6.3-5.6-14.2-5.6s-14.2,5.6-14.2,5.6s-6.4,5.6-14.2,5.6s-14.2-5.6-14.2-5.6
					s-6.3-5.6-14.2-5.6s-14.2,5.6-14.2,5.6s-6.3,5.6-14.2,5.6s-14.2-5.6-14.2-5.6"/>
				<path class="st1" d="M298.1,188.2c0,0-6.3-5.6-14.2-5.6s-14.2,5.6-14.2,5.6s-6.3,5.6-14.2,5.6c-7.8,0-14.2-5.6-14.2-5.6
					s-6.4-5.6-14.2-5.6s-14.2,5.6-14.2,5.6s-6.3,5.6-14.2,5.6s-14.2-5.6-14.2-5.6"/>
				<path class="st1" d="M71.5,195.2c0,0-6.3-5.6-14.2-5.6s-14.2,5.6-14.2,5.6s-6.3,5.5-14.2,5.5s-14.2-5.5-14.2-5.5
					s-6.3-5.6-14.2-5.6s-14.2,5.6-14.2,5.6s-6.3,5.5-14.2,5.5s-14.2-5.5-14.2-5.5"/>
				<path class="st1" d="M184.8,195.2c0,0-6.3-5.6-14.2-5.6s-14.2,5.6-14.2,5.6s-6.4,5.5-14.2,5.5s-14.2-5.5-14.2-5.5
					s-6.3-5.6-14.2-5.6s-14.2,5.6-14.2,5.6s-6.3,5.5-14.2,5.5s-14.2-5.5-14.2-5.5"/>
				<path class="st1" d="M298.1,195.2c0,0-6.3-5.6-14.2-5.6s-14.2,5.6-14.2,5.6s-6.3,5.5-14.2,5.5c-7.8,0-14.2-5.5-14.2-5.5
					s-6.4-5.6-14.2-5.6s-14.2,5.6-14.2,5.6s-6.3,5.5-14.2,5.5s-14.2-5.5-14.2-5.5"/>
				<path class="st1" d="M71.5,202.2c0,0-6.3-5.6-14.2-5.6s-14.2,5.6-14.2,5.6s-6.3,5.6-14.2,5.6s-14.2-5.6-14.2-5.6
					s-6.3-5.6-14.2-5.6s-14.2,5.6-14.2,5.6s-6.3,5.6-14.2,5.6s-14.2-5.6-14.2-5.6"/>
				<path class="st1" d="M184.8,202.2c0,0-6.3-5.6-14.2-5.6s-14.2,5.6-14.2,5.6s-6.4,5.6-14.2,5.6s-14.2-5.6-14.2-5.6
					s-6.3-5.6-14.2-5.6s-14.2,5.6-14.2,5.6s-6.3,5.6-14.2,5.6s-14.2-5.6-14.2-5.6"/>
				<path class="st1" d="M298.1,202.2c0,0-6.3-5.6-14.2-5.6s-14.2,5.6-14.2,5.6s-6.3,5.6-14.2,5.6c-7.8,0-14.2-5.6-14.2-5.6
					s-6.4-5.6-14.2-5.6s-14.2,5.6-14.2,5.6s-6.3,5.6-14.2,5.6s-14.2-5.6-14.2-5.6"/>
				<path class="st1" d="M71.5,209.2c0,0-6.3-5.5-14.2-5.5s-14.2,5.5-14.2,5.5s-6.3,5.6-14.2,5.6s-14.2-5.6-14.2-5.6
					s-6.3-5.5-14.2-5.5s-14.2,5.5-14.2,5.5s-6.3,5.6-14.2,5.6s-14.2-5.6-14.2-5.6"/>
				<path class="st1" d="M184.8,209.2c0,0-6.3-5.5-14.2-5.5s-14.2,5.5-14.2,5.5s-6.4,5.6-14.2,5.6s-14.2-5.6-14.2-5.6
					s-6.3-5.5-14.2-5.5s-14.2,5.5-14.2,5.5s-6.3,5.6-14.2,5.6s-14.2-5.6-14.2-5.6"/>
				<path class="st1" d="M298.1,209.2c0,0-6.3-5.5-14.2-5.5s-14.2,5.5-14.2,5.5s-6.3,5.6-14.2,5.6c-7.8,0-14.2-5.6-14.2-5.6
					s-6.4-5.5-14.2-5.5s-14.2,5.5-14.2,5.5s-6.3,5.6-14.2,5.6s-14.2-5.6-14.2-5.6"/>
				<path class="st1" d="M71.5,216.2c0,0-6.3-5.6-14.2-5.6s-14.2,5.6-14.2,5.6s-6.3,5.6-14.2,5.6s-14.2-5.6-14.2-5.6
					s-6.3-5.6-14.2-5.6s-14.2,5.6-14.2,5.6s-6.3,5.6-14.2,5.6s-14.2-5.6-14.2-5.6"/>
				<path class="st1" d="M184.8,216.2c0,0-6.3-5.6-14.2-5.6s-14.2,5.6-14.2,5.6s-6.4,5.6-14.2,5.6s-14.2-5.6-14.2-5.6
					s-6.3-5.6-14.2-5.6s-14.2,5.6-14.2,5.6s-6.3,5.6-14.2,5.6s-14.2-5.6-14.2-5.6"/>
				<path class="st1" d="M298.1,216.2c0,0-6.3-5.6-14.2-5.6s-14.2,5.6-14.2,5.6s-6.3,5.6-14.2,5.6c-7.8,0-14.2-5.6-14.2-5.6
					s-6.4-5.6-14.2-5.6s-14.2,5.6-14.2,5.6s-6.3,5.6-14.2,5.6s-14.2-5.6-14.2-5.6"/>
				<path class="st1" d="M71.5,223.2c0,0-6.3-5.6-14.2-5.6s-14.2,5.6-14.2,5.6s-6.3,5.5-14.2,5.5s-14.2-5.5-14.2-5.5
					s-6.3-5.6-14.2-5.6s-14.2,5.6-14.2,5.6s-6.3,5.5-14.2,5.5s-14.2-5.5-14.2-5.5"/>
				<path class="st1" d="M184.8,223.2c0,0-6.3-5.6-14.2-5.6s-14.2,5.6-14.2,5.6s-6.4,5.5-14.2,5.5s-14.2-5.5-14.2-5.5
					s-6.3-5.6-14.2-5.6s-14.2,5.6-14.2,5.6s-6.3,5.5-14.2,5.5s-14.2-5.5-14.2-5.5"/>
				<path class="st1" d="M298.1,223.2c0,0-6.3-5.6-14.2-5.6s-14.2,5.6-14.2,5.6s-6.3,5.5-14.2,5.5c-7.8,0-14.2-5.5-14.2-5.5
					s-6.4-5.6-14.2-5.6s-14.2,5.6-14.2,5.6s-6.3,5.5-14.2,5.5s-14.2-5.5-14.2-5.5"/>
				<path class="st1" d="M71.5,230.2c0,0-6.3-5.6-14.2-5.6s-14.2,5.6-14.2,5.6s-6.3,5.5-14.2,5.5s-14.2-5.5-14.2-5.5
					s-6.3-5.6-14.2-5.6s-14.2,5.6-14.2,5.6s-6.3,5.5-14.2,5.5s-14.2-5.5-14.2-5.5"/>
				<path class="st1" d="M184.8,230.2c0,0-6.3-5.6-14.2-5.6s-14.2,5.6-14.2,5.6s-6.4,5.5-14.2,5.5s-14.2-5.5-14.2-5.5
					s-6.3-5.6-14.2-5.6s-14.2,5.6-14.2,5.6s-6.3,5.5-14.2,5.5s-14.2-5.5-14.2-5.5"/>
				<path class="st1" d="M298.1,230.2c0,0-6.3-5.6-14.2-5.6s-14.2,5.6-14.2,5.6s-6.3,5.5-14.2,5.5c-7.8,0-14.2-5.5-14.2-5.5
					s-6.4-5.6-14.2-5.6s-14.2,5.6-14.2,5.6s-6.3,5.5-14.2,5.5s-14.2-5.5-14.2-5.5"/>
				<path class="st1" d="M71.5,237.2c0,0-6.3-5.5-14.2-5.5s-14.2,5.5-14.2,5.5s-6.3,5.5-14.2,5.5s-14.2-5.5-14.2-5.5
					s-6.3-5.5-14.2-5.5s-14.2,5.5-14.2,5.5s-6.3,5.5-14.2,5.5s-14.2-5.5-14.2-5.5"/>
				<path class="st1" d="M184.8,237.2c0,0-6.3-5.5-14.2-5.5s-14.2,5.5-14.2,5.5s-6.4,5.5-14.2,5.5s-14.2-5.5-14.2-5.5
					s-6.3-5.5-14.2-5.5s-14.2,5.5-14.2,5.5s-6.3,5.5-14.2,5.5s-14.2-5.5-14.2-5.5"/>
				<path class="st1" d="M298.1,237.2c0,0-6.3-5.5-14.2-5.5s-14.2,5.5-14.2,5.5s-6.3,5.5-14.2,5.5c-7.8,0-14.2-5.5-14.2-5.5
					s-6.4-5.5-14.2-5.5s-14.2,5.5-14.2,5.5s-6.3,5.5-14.2,5.5s-14.2-5.5-14.2-5.5"/>
				<path class="st1" d="M71.5,244.2c0,0-6.3-5.5-14.2-5.5s-14.2,5.5-14.2,5.5s-6.3,5.5-14.2,5.5s-14.2-5.5-14.2-5.5
					s-6.3-5.5-14.2-5.5s-14.2,5.5-14.2,5.5s-6.3,5.5-14.2,5.5s-14.2-5.5-14.2-5.5"/>
				<path class="st1" d="M184.8,244.2c0,0-6.3-5.5-14.2-5.5s-14.2,5.5-14.2,5.5s-6.4,5.5-14.2,5.5s-14.2-5.5-14.2-5.5
					s-6.3-5.5-14.2-5.5s-14.2,5.5-14.2,5.5s-6.3,5.5-14.2,5.5s-14.2-5.5-14.2-5.5"/>
				<path class="st1" d="M298.1,244.2c0,0-6.3-5.5-14.2-5.5s-14.2,5.5-14.2,5.5s-6.3,5.5-14.2,5.5c-7.8,0-14.2-5.5-14.2-5.5
					s-6.4-5.5-14.2-5.5s-14.2,5.5-14.2,5.5s-6.3,5.5-14.2,5.5s-14.2-5.5-14.2-5.5"/>
				<path class="st1" d="M71.5,251.2c0,0-6.3-5.5-14.2-5.5s-14.2,5.5-14.2,5.5s-6.3,5.5-14.2,5.5s-14.2-5.5-14.2-5.5
					s-6.3-5.5-14.2-5.5s-14.2,5.5-14.2,5.5s-6.3,5.5-14.2,5.5s-14.2-5.5-14.2-5.5"/>
				<path class="st1" d="M184.8,251.2c0,0-6.3-5.5-14.2-5.5s-14.2,5.5-14.2,5.5s-6.4,5.5-14.2,5.5s-14.2-5.5-14.2-5.5
					s-6.3-5.5-14.2-5.5s-14.2,5.5-14.2,5.5s-6.3,5.5-14.2,5.5s-14.2-5.5-14.2-5.5"/>
				<path class="st1" d="M298.1,251.2c0,0-6.3-5.5-14.2-5.5s-14.2,5.5-14.2,5.5s-6.3,5.5-14.2,5.5c-7.8,0-14.2-5.5-14.2-5.5
					s-6.4-5.5-14.2-5.5s-14.2,5.5-14.2,5.5s-6.3,5.5-14.2,5.5s-14.2-5.5-14.2-5.5"/>
				<path class="st1" d="M71.5,258.2c0,0-6.3-5.5-14.2-5.5s-14.2,5.5-14.2,5.5s-6.3,5.5-14.2,5.5s-14.2-5.5-14.2-5.5
					s-6.3-5.5-14.2-5.5s-14.2,5.5-14.2,5.5s-6.3,5.5-14.2,5.5s-14.2-5.5-14.2-5.5"/>
				<path class="st1" d="M184.8,258.2c0,0-6.3-5.5-14.2-5.5s-14.2,5.5-14.2,5.5s-6.4,5.5-14.2,5.5s-14.2-5.5-14.2-5.5
					s-6.3-5.5-14.2-5.5s-14.2,5.5-14.2,5.5s-6.3,5.5-14.2,5.5s-14.2-5.5-14.2-5.5"/>
				<path class="st1" d="M298.1,258.2c0,0-6.3-5.5-14.2-5.5s-14.2,5.5-14.2,5.5s-6.3,5.5-14.2,5.5c-7.8,0-14.2-5.5-14.2-5.5
					s-6.4-5.5-14.2-5.5s-14.2,5.5-14.2,5.5s-6.3,5.5-14.2,5.5s-14.2-5.5-14.2-5.5"/>
				<path class="st1" d="M71.5,265.2c0,0-6.3-5.5-14.2-5.5s-14.2,5.5-14.2,5.5s-6.3,5.5-14.2,5.5s-14.2-5.5-14.2-5.5
					s-6.3-5.5-14.2-5.5s-14.2,5.5-14.2,5.5s-6.3,5.5-14.2,5.5s-14.2-5.5-14.2-5.5"/>
				<path class="st1" d="M184.8,265.2c0,0-6.3-5.5-14.2-5.5s-14.2,5.5-14.2,5.5s-6.4,5.5-14.2,5.5s-14.2-5.5-14.2-5.5
					s-6.3-5.5-14.2-5.5s-14.2,5.5-14.2,5.5s-6.3,5.5-14.2,5.5s-14.2-5.5-14.2-5.5"/>
				<path class="st1" d="M298.1,265.2c0,0-6.3-5.5-14.2-5.5s-14.2,5.5-14.2,5.5s-6.3,5.5-14.2,5.5c-7.8,0-14.2-5.5-14.2-5.5
					s-6.4-5.5-14.2-5.5s-14.2,5.5-14.2,5.5s-6.3,5.5-14.2,5.5s-14.2-5.5-14.2-5.5"/>
				<path class="st1" d="M71.5,272.2c0,0-6.3-5.5-14.2-5.5s-14.2,5.5-14.2,5.5s-6.3,5.5-14.2,5.5s-14.2-5.5-14.2-5.5
					s-6.3-5.5-14.2-5.5s-14.2,5.5-14.2,5.5s-6.3,5.5-14.2,5.5s-14.2-5.5-14.2-5.5"/>
				<path class="st1" d="M184.8,272.2c0,0-6.3-5.5-14.2-5.5s-14.2,5.5-14.2,5.5s-6.4,5.5-14.2,5.5s-14.2-5.5-14.2-5.5
					s-6.3-5.5-14.2-5.5s-14.2,5.5-14.2,5.5s-6.3,5.5-14.2,5.5s-14.2-5.5-14.2-5.5"/>
				<path class="st1" d="M298.1,272.2c0,0-6.3-5.5-14.2-5.5s-14.2,5.5-14.2,5.5s-6.3,5.5-14.2,5.5c-7.8,0-14.2-5.5-14.2-5.5
					s-6.4-5.5-14.2-5.5s-14.2,5.5-14.2,5.5s-6.3,5.5-14.2,5.5s-14.2-5.5-14.2-5.5"/>
				<path class="st1" d="M71.5,279.2c0,0-6.3-5.5-14.2-5.5s-14.2,5.5-14.2,5.5s-6.3,5.6-14.1,5.6s-14.2-5.5-14.2-5.5
					s-6.3-5.5-14.2-5.5s-14.2,5.5-14.2,5.5s-6.3,5.5-14.2,5.5s-14.2-5.5-14.2-5.5"/>
				<path class="st1" d="M184.8,279.2c0,0-6.3-5.5-14.2-5.5s-14.2,5.5-14.2,5.5s-6.4,5.5-14.2,5.5s-14.2-5.5-14.2-5.5
					s-6.3-5.5-14.2-5.5s-14.2,5.5-14.2,5.5s-6.3,5.5-14.2,5.5s-14.2-5.5-14.2-5.5"/>
				<path class="st1" d="M298.1,279.2c0,0-6.3-5.5-14.2-5.5s-14.2,5.5-14.2,5.5s-6.3,5.5-14.2,5.5c-7.8,0-14.2-5.5-14.2-5.5
					s-6.4-5.5-14.2-5.5s-14.2,5.5-14.2,5.5s-6.3,5.5-14.2,5.5s-14.2-5.5-14.2-5.5"/>
				<path class="st2" d="M66.6,471.9c0,0-6.3-5.5-14.2-5.5s-14.2,5.5-14.2,5.5s-6.3,5.5-14.2,5.5s-14.2-5.5-14.2-5.5
					s-6.3-5.5-14.2-5.5s-14.2,5.5-14.2,5.5s-6.3,5.5-14.2,5.5s-14.2-5.5-14.2-5.5"/>
				<path class="st2" d="M179.9,471.9c0,0-6.3-5.5-14.2-5.5s-14.2,5.5-14.2,5.5s-6.3,5.5-14.2,5.5s-14.2-5.5-14.2-5.5
					s-6.4-5.5-14.2-5.5s-14.2,5.5-14.2,5.5s-6.3,5.5-14.2,5.5s-14.2-5.5-14.2-5.5"/>
				<path class="st2" d="M293.2,471.9c0,0-6.4-5.5-14.2-5.5s-14.2,5.5-14.2,5.5s-6.3,5.5-14.2,5.5c-7.8,0-14.2-5.5-14.2-5.5
					s-6.3-5.5-14.2-5.5s-14.2,5.5-14.2,5.5s-6.4,5.5-14.2,5.5s-14.2-5.5-14.2-5.5"/>
				<path class="st2" d="M66.6,478.9c0,0-6.3-5.5-14.2-5.5s-14.2,5.5-14.2,5.5s-6.3,5.6-14.2,5.6s-14.2-5.5-14.2-5.5
					s-6.3-5.5-14.2-5.5s-14.2,5.5-14.2,5.5s-6.3,5.5-14.2,5.5s-14.2-5.6-14.2-5.6"/>
				<path class="st2" d="M179.9,478.9c0,0-6.3-5.5-14.2-5.5s-14.2,5.5-14.2,5.5s-6.3,5.6-14.2,5.6s-14.2-5.5-14.2-5.5
					s-6.4-5.5-14.2-5.5s-14.2,5.5-14.2,5.5s-6.3,5.5-14.2,5.5s-14.2-5.5-14.2-5.5"/>
				<path class="st2" d="M293.2,478.9c0,0-6.4-5.5-14.2-5.5s-14.2,5.5-14.2,5.5s-6.3,5.6-14.2,5.6c-7.8,0-14.2-5.5-14.2-5.5
					s-6.3-5.5-14.2-5.5s-14.2,5.5-14.2,5.5s-6.4,5.5-14.2,5.5s-14.2-5.5-14.2-5.5"/>
				<path class="st2" d="M66.6,485.9c0,0-6.3-5.5-14.2-5.5s-14.2,5.5-14.2,5.5s-6.3,5.5-14.2,5.5s-14.2-5.5-14.2-5.5
					s-6.3-5.5-14.2-5.5s-14.2,5.5-14.2,5.5s-6.3,5.5-14.2,5.5s-14.2-5.5-14.2-5.5"/>
				<path class="st2" d="M179.9,485.9c0,0-6.3-5.5-14.2-5.5s-14.2,5.5-14.2,5.5s-6.3,5.5-14.2,5.5s-14.2-5.5-14.2-5.5
					s-6.4-5.5-14.2-5.5s-14.2,5.5-14.2,5.5s-6.3,5.5-14.2,5.5s-14.2-5.5-14.2-5.5"/>
				<path class="st2" d="M293.2,485.9c0,0-6.4-5.5-14.2-5.5s-14.2,5.5-14.2,5.5s-6.3,5.5-14.2,5.5c-7.8,0-14.2-5.5-14.2-5.5
					s-6.3-5.5-14.2-5.5s-14.2,5.5-14.2,5.5s-6.4,5.5-14.2,5.5s-14.2-5.5-14.2-5.5"/>
				<path class="st2" d="M66.6,492.9c0,0-6.3-5.5-14.2-5.5s-14.2,5.5-14.2,5.5s-6.3,5.5-14.2,5.5s-14.2-5.5-14.2-5.5
					s-6.3-5.5-14.2-5.5s-14.2,5.5-14.2,5.5s-6.3,5.5-14.2,5.5s-14.2-5.5-14.2-5.5"/>
				<path class="st2" d="M179.9,492.9c0,0-6.3-5.5-14.2-5.5s-14.2,5.5-14.2,5.5s-6.3,5.5-14.2,5.5s-14.2-5.5-14.2-5.5
					s-6.4-5.5-14.2-5.5s-14.2,5.5-14.2,5.5s-6.3,5.5-14.2,5.5s-14.2-5.5-14.2-5.5"/>
				<path class="st2" d="M293.2,492.9c0,0-6.4-5.5-14.2-5.5s-14.2,5.5-14.2,5.5s-6.3,5.5-14.2,5.5c-7.8,0-14.2-5.5-14.2-5.5
					s-6.3-5.5-14.2-5.5s-14.2,5.5-14.2,5.5s-6.4,5.5-14.2,5.5s-14.2-5.5-14.2-5.5"/>
				<path class="st2" d="M66.6,499.9c0,0-6.3-5.5-14.2-5.5s-14.2,5.5-14.2,5.5s-6.3,5.5-14.2,5.5s-14.2-5.5-14.2-5.5
					s-6.3-5.5-14.2-5.5s-14.2,5.5-14.2,5.5s-6.3,5.5-14.2,5.5s-14.2-5.5-14.2-5.5"/>
				<path class="st2" d="M179.9,499.9c0,0-6.3-5.5-14.2-5.5s-14.2,5.5-14.2,5.5s-6.3,5.5-14.2,5.5s-14.2-5.5-14.2-5.5
					s-6.4-5.5-14.2-5.5s-14.2,5.5-14.2,5.5s-6.3,5.5-14.2,5.5s-14.2-5.5-14.2-5.5"/>
				<path class="st2" d="M293.2,499.9c0,0-6.4-5.5-14.2-5.5s-14.2,5.5-14.2,5.5s-6.3,5.5-14.2,5.5c-7.8,0-14.2-5.5-14.2-5.5
					s-6.3-5.5-14.2-5.5s-14.2,5.5-14.2,5.5s-6.4,5.5-14.2,5.5s-14.2-5.5-14.2-5.5"/>
			</g>
		</g>
	</g>
</g>
</svg>
